<?xml version="1.0" encoding="UTF-8" standalone="no"?>
<!-- Created with Inkscape (http://www.inkscape.org/) -->

<svg
   xmlns:dc="http://purl.org/dc/elements/1.1/"
   xmlns:cc="http://creativecommons.org/ns#"
   xmlns:rdf="http://www.w3.org/1999/02/22-rdf-syntax-ns#"
   xmlns:svg="http://www.w3.org/2000/svg"
   xmlns="http://www.w3.org/2000/svg"
   xmlns:sodipodi="http://sodipodi.sourceforge.net/DTD/sodipodi-0.dtd"
   xmlns:inkscape="http://www.inkscape.org/namespaces/inkscape"
   width="1488.189"
   height="498.35999"
   id="svg7914"
   version="1.1"
   inkscape:version="0.48.4 r9939"
   sodipodi:docname="klsh1.svg">
  <defs
     id="defs7916" />
  <sodipodi:namedview
     id="base"
     pagecolor="#ffffff"
     bordercolor="#666666"
     borderopacity="1.0"
     inkscape:pageopacity="0.0"
     inkscape:pageshadow="2"
     inkscape:zoom="0.49497475"
     inkscape:cx="435.74623"
     inkscape:cy="62.801026"
     inkscape:document-units="px"
     inkscape:current-layer="layer1"
     showgrid="false"
     height="1052.36px"
     inkscape:window-width="1366"
     inkscape:window-height="744"
     inkscape:window-x="0"
     inkscape:window-y="24"
     inkscape:window-maximized="1" />
  <metadata
     id="metadata7919">
    <rdf:RDF>
      <cc:Work
         rdf:about="">
        <dc:format>image/svg+xml</dc:format>
        <dc:type
           rdf:resource="http://purl.org/dc/dcmitype/StillImage" />
        <dc:title></dc:title>
      </cc:Work>
    </rdf:RDF>
  </metadata>
  <g
     inkscape:label="Layer 1"
     inkscape:groupmode="layer"
     id="layer1"
     transform="translate(0,-553.99542)">
    <path
       inkscape:connector-curvature="0"
       d="m 875.3109,1052.3656 c -7.70504,0 -13.95548,-6.582 -13.95548,-14.6957 l 0,-468.53526 c 0,-8.11375 6.25044,-14.68058 13.95548,-14.68058 l 102.65673,0 c 7.70502,0 13.95545,6.56683 13.95545,14.68058 l 0,350.72653 147.67712,-256.06098 c 3.9894,-6.93082 12.5729,-9.12986 19.1546,-4.92893 l 41.6215,26.61614 c 1.2529,0.80379 2.2755,1.81991 3.1972,2.91186 l 42.284,-117.20206 c 2.7364,-7.58234 10.8014,-11.38958 18.0024,-8.50807 l 92.705,37.09579 0,-30.65028 c 0,-8.11375 6.2504,-14.68058 13.9554,-14.68058 l 103.5929,0 c 7.705,0 13.9555,6.56683 13.9555,14.68058 l 0,468.53526 c 0,8.1137 -6.2505,14.6957 -13.9555,14.6957 l -598.8023,0 m 481.254,-382.04409 -96.4063,267.1321 82.4653,0 c 7.705,0 13.941,-6.56683 13.941,-14.68059 l 0,-252.45151 z m -172.1459,71.12805 -113.055,196.00405 69.2012,0 -10.4558,-4.17062 c -7.2004,-2.88152 -10.8158,-11.37442 -8.0795,-18.95738 L 1184.419,741.44956 z M 474.53476,1043.8424 c -6.20721,4.7772 -14.93477,3.4123 -19.5146,-3.0939 l -51.25633,-72.88726 c -4.59422,-6.5365 -3.21163,-15.72705 2.99559,-20.58013 74.01136,-58.10054 70.41087,-107.19254 70.41087,-150.26371 l 0,-227.88276 c 0,-8.11375 6.25043,-14.68058 13.95547,-14.68058 l 332.07903,0 c 7.70504,0 13.95545,6.56683 13.95545,14.68058 l 0,468.53526 c 0,8.1137 -6.25041,14.6957 -13.95545,14.6957 l -99.8628,0 c -7.705,0 -13.95541,-6.582 -13.95541,-14.6957 l 0,-353.62324 c 0,-8.11375 -6.23604,-14.69576 -13.94106,-14.69576 l -79.35449,0 c -7.705,0 -13.94102,6.58201 -13.94102,14.69576 l 0,118.87028 c 0,84.42854 -23.01423,160.33387 -127.61525,240.92546 M 250.7436,772.40316 419.38987,1029.3286 c 6.39445,9.7365 -0.23042,23.037 -11.47831,23.037 l -106.71809,0 c -4.65183,0 -8.9724,-2.4265 -11.56475,-6.4758 L 164.41862,850.32555 c -4.95426,-7.73461 -15.41003,-8.70522 -21.57405,-2.01709 l -14.86276,16.13652 c -2.53474,2.72988 -3.94612,6.40003 -3.94612,10.22183 l 0,163.00309 c 0,8.1137 -6.25043,14.6957 -13.95545,14.6957 l -96.132689,0 c -7.7050171,0 -13.95544201,-6.582 -13.95544201,-14.6957 l 0,-468.53526 c 0,-8.11375 6.25042491,-14.68058 13.95544201,-14.68058 l 96.132689,0 c 7.70502,0 13.95545,6.56683 13.95545,14.68058 l 0,120.97835 c 0,13.19435 15.22281,19.70052 23.95036,10.237 L 278.46729,558.89766 c 2.63553,-2.83601 6.236,-4.4436 10.00929,-4.4436 l 109.08002,0 c 12.21282,0 18.52084,15.34787 10.16772,24.73558 L 252.03977,754.00693 c -4.49338,5.05024 -5.02624,12.70902 -1.29617,18.39623 z"
       style="fill:#404040;fill-opacity:1;fill-rule:nonzero;stroke:none"
       id="path612" />
  </g>
</svg>
